<svg width="86" height="85" viewBox="0 0 86 85" fill="none" xmlns="http://www.w3.org/2000/svg">
<ellipse cx="42.925" cy="42.5" rx="42.925" ry="42.5" fill="#DCCE90"/>
<path d="M34.2925 24.8855V15.4551H69.4607V36.4922H61.035L51.8766 45.5599V36.4922H46.0152" stroke="white" stroke-width="2.17625"/>
<ellipse cx="45.6486" cy="27.4241" rx="1.09901" ry="1.08813" fill="white"/>
<ellipse cx="51.5099" cy="27.4241" rx="1.09901" ry="1.08813" fill="white"/>
<ellipse cx="57.3715" cy="27.4241" rx="1.09901" ry="1.08813" fill="white"/>
<path d="M41.9963 41.9324C41.9963 47.6376 37.7991 52.0883 32.827 52.0883C27.8548 52.0883 23.6577 47.6376 23.6577 41.9324C23.6577 36.2273 27.8548 31.7766 32.827 31.7766C37.7991 31.7766 41.9963 36.2273 41.9963 41.9324Z" stroke="white" stroke-width="2.17625"/>
<path d="M22.9358 41.5699C25.0117 42.2953 30.1892 42.5129 34.2922 37.5801C35.4645 42.2227 40.3978 42.1744 42.7179 41.5699" stroke="white" stroke-width="2.17625"/>
<path d="M28.4309 51.3631V56.441C24.157 57.4083 15.6091 60.1407 15.6091 63.3325C15.6091 66.5243 15.6091 68.5313 15.6091 69.1358H50.7774V64.3457C50.7774 63.6829 50.6073 63.0241 50.1833 62.5147C48.5328 60.532 44.5687 57.4484 37.9556 56.441C37.9556 52.6689 37.9556 50.7586 37.9556 50.6377" stroke="white" stroke-width="2.17625"/>
</svg>
