<svg width="86" height="85" viewBox="0 0 86 85" fill="none" xmlns="http://www.w3.org/2000/svg">
<ellipse cx="42.925" cy="42.5" rx="42.925" ry="42.5" fill="#DCCE90"/>
<mask id="path-2-inside-1_0_3377" fill="white">
<rect x="29.6165" y="20.0908" width="41.4052" height="26.9638" rx="0.728751"/>
</mask>
<rect x="29.6165" y="20.0908" width="41.4052" height="26.9638" rx="0.728751" stroke="white" stroke-width="4.37251" mask="url(#path-2-inside-1_0_3377)"/>
<path d="M26.6589 30.293H23.321C22.9186 30.293 22.5923 30.6192 22.5923 31.0217V55.4349C22.5923 55.8374 22.9186 56.1636 23.321 56.1636H62.5293C62.9318 56.1636 63.2581 55.8374 63.2581 55.4349V50.3336" stroke="white" stroke-width="2.18625"/>
<path d="M18.8954 39.0381H15.5576C15.1551 39.0381 14.8289 39.3644 14.8289 39.7668V64.18C14.8289 64.5825 15.1551 64.9087 15.5576 64.9087H54.7659C55.1684 64.9087 55.4946 64.5825 55.4946 64.18V59.0787" stroke="white" stroke-width="2.18625"/>
</svg>
